<svg xmlns="http://www.w3.org/2000/svg" width="640.813" height="629.192" viewBox="0 0 640.813 629.192">
  <g id="Group_1" data-name="Group 1" opacity="0.3">
    <g id="BACKGROUND" transform="translate(0 0)">
      <g id="Group_9" data-name="Group 9" transform="translate(7.594 23.323)">
        <g id="Group_8" data-name="Group 8" transform="translate(0 0)">
          <g id="Group_3" data-name="Group 3" transform="translate(0 14.182)" opacity="0.41">
            <g id="Group_2" data-name="Group 2">
              <g id="Group_1-2" data-name="Group 1">
                <path id="Path_1" data-name="Path 1" d="M29.126,405.907a191.407,191.407,0,0,1-.755-31.959c3.031-50.024,25.675-98.244,60.8-133.283,12.531-12.5,26.932-23.866,34.694-39.9,13.068-27,10.471-57.1,27.024-83.96a152.173,152.173,0,0,1,70.447-60.444c86.01-35.618,211.118,8.318,205.467,116.611-.021.389-.036.952-.048,1.666a38.8,38.8,0,0,0,39.707,39.719c80.884-2.328,153.6,57.577,172.51,137.341,12.159,51.3-.671,108.907-35.955,147.523-26.336,28.824-62.758,45.823-99.432,58.122C430.055,582,351.8,590.5,274.517,586.66,202.176,583.066,125.2,565.966,75.83,511.9,49.492,483.059,33.333,445.14,29.126,405.907Z" transform="translate(-28.026 -44.223)" fill="#e1e2fe"/>
              </g>
            </g>
          </g>
          <g id="Group_4" data-name="Group 4" transform="translate(370.302)" opacity="0.31">
            <ellipse id="Ellipse_1" data-name="Ellipse 1" cx="18.584" cy="18.201" rx="18.584" ry="18.201" transform="matrix(0.021, -1, 1, 0.021, 0, 37.159)" fill="#e1e2fe"/>
          </g>
          <g id="Group_5" data-name="Group 5" transform="translate(80.5 9.375)" opacity="0.31">
            <path id="Path_2" data-name="Path 2" d="M85.622,50.87a9.393,9.393,0,1,0,8.9-10.072A9.457,9.457,0,0,0,85.622,50.87Z" transform="translate(-85.609 -40.785)" fill="#e1e2fe"/>
          </g>
          <g id="Group_6" data-name="Group 6" transform="translate(620.785 229.459)" opacity="0.31">
            <path id="Path_3" data-name="Path 3" d="M472.094,204.89a6.219,6.219,0,1,0,5.891-6.667A6.26,6.26,0,0,0,472.094,204.89Z" transform="translate(-472.086 -198.215)" fill="#e1e2fe"/>
          </g>
          <g id="Group_7" data-name="Group 7" transform="translate(533.903 525.635)" opacity="0.31">
            <ellipse id="Ellipse_2" data-name="Ellipse 2" cx="29.256" cy="28.653" rx="29.256" ry="28.653" transform="translate(0 58.5) rotate(-88.801)" fill="#e1e2fe"/>
          </g>
        </g>
      </g>
      <g id="Group_13" data-name="Group 13">
        <g id="Group_10" data-name="Group 10">
          <path id="Path_4" data-name="Path 4" d="M26.966,112.766a33.465,33.465,0,0,1,11.778-45.2C54.218,58.4,84.783,57.39,93.751,73.182s-14.791,31.01-24.006,46.669C56.892,141.688,35.934,128.556,26.966,112.766Z" transform="translate(-22.594 -0.068)" fill="#ecf1f7" opacity="0.47"/>
          <path id="Path_5" data-name="Path 5" d="M105.162,466.606a24.476,24.476,0,0,1-34.633-5.715c-8.009-11.345-11.054-35.061.064-43.248s24.265,9.144,36.648,15.122C124.513,441.1,116.281,458.418,105.162,466.606Z" transform="translate(-6.376 141.036)" fill="#e1e2fe" opacity="0.47"/>
          <path id="Path_6" data-name="Path 6" d="M411.531,27.091a30.836,30.836,0,0,1,44.245-.674c12.389,12.288,21.274,41.05,9.228,53.71s-32.1-5.909-48.771-10.553C392.987,63.1,399.484,39.752,411.531,27.091Z" transform="translate(127.859 -17.395)" fill="#e1e2fe" opacity="0.47"/>
        </g>
        <g id="Group_12" data-name="Group 12" transform="translate(23.41 47.147)">
          <path id="Path_7" data-name="Path 7" d="M47.278,179.695c-8.133,23.429-10.353,49.026-5.087,73.243C49.271,285.5,73.658,314.124,69.5,348.851c-2.5,20.84-2.051,39.942-2.554,60.416-1.032,42.043,28.345,76.848,62.805,94.268,27.989,14.149,59.814,17.882,90.534,15.176,27.648-2.432,54.876-9.692,81.157-18.688,25.327-8.67,49.913-19.446,77.221-18.638,22.713.67,43.772,9.112,65.327,14.974,51.46,14,112.34,12.006,156.078-18.325,47.944-33.247,67.308-96.333,50.555-151.464-8.986-29.571-20.985-55.2-16.644-86.707,2.135-15.5,5.319-31.273,2.379-46.639-2.705-14.142-10.458-26.868-19.654-37.947-24.795-29.875-60.089-48.924-96.783-60.131C478.3,82.433,432.085,75.5,388.8,82.084c-84.08,12.787-102.378.351-190.27-12.127C139.653,61.6,84.386,108.412,57.553,156.708A145.807,145.807,0,0,0,47.278,179.695Z" transform="translate(-39.34 -44.012)" fill="#e1e2fe" opacity="0.32"/>
          <g id="Group_11" data-name="Group 11" transform="translate(36.129)" opacity="0.83">
            <path id="Path_8" data-name="Path 8" d="M77.686,254.462c12.111-15.979,30.831-26.831,40-45.194,10.981-21.982,8.667-47.924,18.474-70.383,14.493-33.184,40.738-61.37,73.6-76.848,15.84-7.46,33.224-12,50.183-10.7,26.142,2,48.691,17.567,66.326,36.153,26.244,27.66,44.8,66.945,76.3,89.107,17.381,12.231,37.807-.745,56.221-4.861a127.405,127.405,0,0,1,62.36,2.1c36.64,10.43,68.193,36.676,83.974,71.286,16.847,36.95,14.452,88.033-17.17,119.8-14.63,14.7-34.469,24.519-45.325,42.122-13.625,22.092-15.223,51.953-19.026,76.517a162.343,162.343,0,0,1-33.22,75.484q-.3.373-.6.745c-30.276,37.636-81.946,50.329-125.5,31.457L271.607,551.1C177.567,510.362,106.176,444.711,71.9,349.565c-7.418-20.588-10.112-64.483-.663-84.582A58.969,58.969,0,0,1,77.686,254.462Z" transform="translate(-65.183 -51.12)" fill="#e1e2fe" opacity="0.81"/>
          </g>
        </g>
      </g>
      <ellipse id="Ellipse_3" data-name="Ellipse 3" cx="6.291" cy="6.291" rx="6.291" ry="6.291" transform="translate(499.037 574.534)" fill="#3e479b" opacity="0.58"/>
      <ellipse id="Ellipse_4" data-name="Ellipse 4" cx="3.145" cy="3.145" rx="3.145" ry="3.145" transform="translate(342.982 25.117)" fill="#3e479b" opacity="0.58"/>
      <ellipse id="Ellipse_5" data-name="Ellipse 5" cx="6.291" cy="6.291" rx="6.291" ry="6.291" transform="translate(145.7 589.64)" fill="#3e479b" opacity="0.58"/>
      <circle id="Ellipse_6" data-name="Ellipse 6" cx="4.893" cy="4.893" r="4.893" transform="translate(526.06 619.406)" fill="#ef929c" opacity="0.58"/>
      <ellipse id="Ellipse_7" data-name="Ellipse 7" cx="2.097" cy="2.097" rx="2.097" ry="2.097" transform="translate(47.482 30.601)" fill="#3e479b" opacity="0.58"/>
      <circle id="Ellipse_8" data-name="Ellipse 8" cx="7.554" cy="7.554" r="7.554" transform="translate(607.224 91.836) rotate(-63.039)" fill="#ef929c" opacity="0.58"/>
      <path id="Path_9" data-name="Path 9" d="M76.815,27.824a2.963,2.963,0,1,1-2.279-3.516A2.964,2.964,0,0,1,76.815,27.824Z" transform="translate(-3.348 -14.67)" fill="#ef929c" opacity="0.58"/>
      <path id="Path_10" data-name="Path 10" d="M291.441,20.977a2.963,2.963,0,1,1-2.279-3.516A2.963,2.963,0,0,1,291.441,20.977Z" transform="translate(82.068 -17.395)" fill="#ef929c" opacity="0.58"/>
      <path id="Path_11" data-name="Path 11" d="M440.062,87.369a2.518,2.518,0,1,1-1.936-2.989A2.518,2.518,0,0,1,440.062,87.369Z" transform="translate(141.566 9.241)" fill="#3e479b" opacity="0.58"/>
      <path id="Path_12" data-name="Path 12" d="M42.519,397.776a2.518,2.518,0,1,1-1.936-2.989A2.516,2.516,0,0,1,42.519,397.776Z" transform="translate(-16.646 132.776)" fill="#3e479b" opacity="0.58"/>
    </g>
    <g id="OBJECTS" transform="translate(60.059 36.787)">
      <g id="Group_28" data-name="Group 28" transform="translate(20.731 83.795)">
        <g id="Group_18" data-name="Group 18" transform="translate(106.91)" opacity="0.66">
          <g id="Group_17" data-name="Group 17">
            <g id="Group_14" data-name="Group 14" transform="translate(220.872)">
              <path id="Path_13" data-name="Path 13" d="M393.517,250.066H382.6a8.317,8.317,0,0,1-8.307-8.308V229.482a5.534,5.534,0,0,0-3.622-5.175c-1.289-.473-2.572-1.005-3.815-1.581a5.585,5.585,0,0,0-6.277,1.075l-8.68,8.681a8.311,8.311,0,0,1-11.75,0l-7.715-7.715a8.319,8.319,0,0,1,0-11.75l8.681-8.681a5.581,5.581,0,0,0,1.074-6.276c-.579-1.254-1.111-2.537-1.58-3.816a5.537,5.537,0,0,0-5.177-3.621H323.163a8.318,8.318,0,0,1-8.309-8.308V171.4a8.318,8.318,0,0,1,8.309-8.308h12.274a5.536,5.536,0,0,0,5.177-3.621c.47-1.282,1-2.565,1.58-3.815a5.584,5.584,0,0,0-1.074-6.277l-8.681-8.681a8.317,8.317,0,0,1,0-11.749l7.715-7.717a8.317,8.317,0,0,1,11.75,0l8.68,8.681a5.583,5.583,0,0,0,6.277,1.075c1.253-.58,2.537-1.111,3.816-1.581a5.535,5.535,0,0,0,3.621-5.177V111.958a8.317,8.317,0,0,1,8.307-8.308h10.913a8.318,8.318,0,0,1,8.308,8.308v12.274a5.535,5.535,0,0,0,3.622,5.177c1.278.47,2.563,1,3.815,1.58a5.581,5.581,0,0,0,6.277-1.074l8.68-8.681a8.317,8.317,0,0,1,11.75,0l7.717,7.717a8.319,8.319,0,0,1,0,11.749L435,149.381a5.578,5.578,0,0,0-1.075,6.275c.577,1.251,1.11,2.535,1.58,3.816a5.537,5.537,0,0,0,5.177,3.621H452.96a8.318,8.318,0,0,1,8.31,8.308v10.913a8.318,8.318,0,0,1-8.31,8.308H440.686a5.538,5.538,0,0,0-5.177,3.621c-.468,1.279-1,2.562-1.578,3.815A5.577,5.577,0,0,0,435,204.335l8.681,8.681a8.321,8.321,0,0,1,0,11.75l-7.717,7.715a8.311,8.311,0,0,1-11.75,0l-8.68-8.681a5.584,5.584,0,0,0-6.277-1.075c-1.243.576-2.526,1.109-3.815,1.581a5.534,5.534,0,0,0-3.622,5.175v12.276A8.318,8.318,0,0,1,393.517,250.066Zm-29.026-30.658a8.411,8.411,0,0,1,3.544.781c1.174.542,2.387,1.046,3.605,1.492a8.343,8.343,0,0,1,5.454,7.8v12.276a5.518,5.518,0,0,0,5.511,5.512h10.913a5.518,5.518,0,0,0,5.512-5.512V229.482a8.344,8.344,0,0,1,5.455-7.8c1.218-.446,2.43-.949,3.6-1.492a8.386,8.386,0,0,1,9.429,1.634l8.68,8.681a5.521,5.521,0,0,0,7.8,0l7.717-7.715a5.521,5.521,0,0,0,0-7.8l-8.681-8.681a8.383,8.383,0,0,1-1.634-9.429c.545-1.181,1.048-2.395,1.492-3.6a8.342,8.342,0,0,1,7.8-5.455H452.96a5.519,5.519,0,0,0,5.514-5.512V171.4a5.519,5.519,0,0,0-5.514-5.512H440.686a8.343,8.343,0,0,1-7.8-5.454c-.445-1.212-.948-2.424-1.492-3.6a8.381,8.381,0,0,1,1.634-9.428l8.681-8.681a5.522,5.522,0,0,0,0-7.8l-7.717-7.717a5.522,5.522,0,0,0-7.8,0l-8.68,8.681a8.39,8.39,0,0,1-9.429,1.634c-1.183-.547-2.395-1.05-3.6-1.492a8.344,8.344,0,0,1-5.456-7.8V111.958a5.517,5.517,0,0,0-5.512-5.512H382.6a5.518,5.518,0,0,0-5.511,5.512v12.274a8.343,8.343,0,0,1-5.454,7.8c-1.209.442-2.421.945-3.605,1.492a8.384,8.384,0,0,1-9.428-1.634l-8.68-8.681a5.522,5.522,0,0,0-7.8,0l-7.715,7.717a5.521,5.521,0,0,0,0,7.8L343.1,147.4a8.39,8.39,0,0,1,1.634,9.428c-.545,1.18-1.047,2.392-1.493,3.6a8.34,8.34,0,0,1-7.8,5.454H323.163a5.519,5.519,0,0,0-5.513,5.512v10.913a5.519,5.519,0,0,0,5.513,5.512h12.274a8.339,8.339,0,0,1,7.8,5.455c.445,1.206.946,2.42,1.494,3.6a8.39,8.39,0,0,1-1.636,9.426l-8.681,8.681a5.52,5.52,0,0,0,0,7.8l7.715,7.715a5.522,5.522,0,0,0,7.8,0l8.68-8.681A8.32,8.32,0,0,1,364.491,219.408Zm23.571-4.176a38.374,38.374,0,1,1,38.374-38.374A38.419,38.419,0,0,1,388.062,215.232Zm0-73.953a35.578,35.578,0,1,0,35.578,35.578A35.619,35.619,0,0,0,388.062,141.279Z" transform="translate(-314.853 -103.65)" fill="#fff"/>
            </g>
            <g id="Group_15" data-name="Group 15" transform="translate(127.606 279.967)" opacity="0.84">
              <path id="Path_14" data-name="Path 14" d="M399.751,369.84H386.138a7.666,7.666,0,0,1-7.2-5.033q-.77-2.1-1.7-4.113a7.709,7.709,0,0,1,1.5-8.71l9.627-9.626a7.664,7.664,0,0,0,0-10.839l-8.557-8.557a7.662,7.662,0,0,0-10.837,0l-9.628,9.628a7.707,7.707,0,0,1-8.708,1.5q-2.015-.933-4.114-1.7a7.667,7.667,0,0,1-5.033-7.2V311.58a7.664,7.664,0,0,0-7.664-7.664h-12.1a7.664,7.664,0,0,0-7.664,7.664v13.615a7.667,7.667,0,0,1-5.033,7.2q-2.1.77-4.113,1.7a7.709,7.709,0,0,1-8.709-1.5l-9.626-9.628a7.664,7.664,0,0,0-10.838,0l-8.557,8.557a7.664,7.664,0,0,0,0,10.839l9.626,9.626a7.71,7.71,0,0,1,1.5,8.71q-.933,2.013-1.7,4.113a7.665,7.665,0,0,1-7.2,5.033H255.8a7.665,7.665,0,0,0-7.664,7.664v12.1a7.665,7.665,0,0,0,7.664,7.664h13.614a7.665,7.665,0,0,1,7.2,5.033q.769,2.1,1.7,4.113a7.709,7.709,0,0,1-1.5,8.709l-9.626,9.626a7.664,7.664,0,0,0,0,10.839l8.557,8.557a7.664,7.664,0,0,0,10.838,0l9.626-9.628a7.711,7.711,0,0,1,8.709-1.5q2.013.933,4.113,1.7a7.668,7.668,0,0,1,5.033,7.2v13.615a7.664,7.664,0,0,0,7.664,7.664h12.1a7.664,7.664,0,0,0,7.664-7.664V441.916a7.668,7.668,0,0,1,5.033-7.2q2.1-.77,4.114-1.7a7.709,7.709,0,0,1,8.708,1.5l9.628,9.628a7.662,7.662,0,0,0,10.837,0l8.557-8.557a7.664,7.664,0,0,0,0-10.839l-9.627-9.626a7.709,7.709,0,0,1-1.5-8.709q.933-2.013,1.7-4.113a7.666,7.666,0,0,1,7.2-5.033h13.614a7.664,7.664,0,0,0,7.664-7.664V377.5A7.664,7.664,0,0,0,399.751,369.84Zm-71.975,54.722a41.008,41.008,0,1,1,41.008-41.008A41.007,41.007,0,0,1,327.776,424.563Z" transform="translate(-248.138 -303.916)" fill="#fff"/>
            </g>
            <g id="Group_16" data-name="Group 16" transform="translate(0 303.983)">
              <path id="Path_15" data-name="Path 15" d="M223.164,444.538H214a7.211,7.211,0,0,1-7.2-7.2V427.022a4.43,4.43,0,0,0-2.9-4.139c-1.081-.394-2.166-.843-3.221-1.334a4.47,4.47,0,0,0-5.02.858l-7.293,7.292a7.2,7.2,0,0,1-10.186,0l-6.481-6.481a7.2,7.2,0,0,1,0-10.187l7.292-7.29a4.463,4.463,0,0,0,.858-5.02c-.486-1.051-.935-2.135-1.335-3.222a4.426,4.426,0,0,0-4.138-2.9H164.063a7.213,7.213,0,0,1-7.2-7.2v-9.165a7.211,7.211,0,0,1,7.2-7.2h10.312a4.426,4.426,0,0,0,4.138-2.9c.4-1.095.85-2.178,1.335-3.221a4.465,4.465,0,0,0-.858-5.02L171.7,352.6a7.2,7.2,0,0,1,0-10.186l6.481-6.482a7.213,7.213,0,0,1,10.186,0l7.293,7.293a4.462,4.462,0,0,0,5.02.857c1.041-.484,2.126-.931,3.221-1.334a4.427,4.427,0,0,0,2.9-4.138V328.3a7.21,7.21,0,0,1,7.2-7.2h9.166a7.21,7.21,0,0,1,7.2,7.2V338.61a4.427,4.427,0,0,0,2.9,4.138c1.1.4,2.179.85,3.221,1.334a4.465,4.465,0,0,0,5.022-.857l7.292-7.293a7.213,7.213,0,0,1,10.186,0l6.482,6.482a7.2,7.2,0,0,1,0,10.186l-7.292,7.293a4.467,4.467,0,0,0-.86,5.022c.485,1.041.934,2.126,1.335,3.221a4.428,4.428,0,0,0,4.138,2.9H273.1a7.211,7.211,0,0,1,7.2,7.2V387.4a7.212,7.212,0,0,1-7.2,7.2H262.786a4.427,4.427,0,0,0-4.138,2.9c-.4,1.086-.849,2.172-1.335,3.222a4.464,4.464,0,0,0,.86,5.02l7.292,7.29a7.2,7.2,0,0,1,0,10.187l-6.482,6.481a7.2,7.2,0,0,1-10.186,0l-7.292-7.292a4.472,4.472,0,0,0-5.022-.858c-1.06.492-2.143.939-3.222,1.335a4.427,4.427,0,0,0-2.9,4.138v10.311A7.211,7.211,0,0,1,223.164,444.538Zm-24.381-26.2a7.311,7.311,0,0,1,3.07.677c.985.457,2,.876,3.008,1.244a7.238,7.238,0,0,1,4.729,6.765v10.311A4.413,4.413,0,0,0,214,441.742h9.166a4.412,4.412,0,0,0,4.406-4.408V427.022a7.235,7.235,0,0,1,4.729-6.763c1.008-.368,2.02-.787,3.01-1.246a7.277,7.277,0,0,1,8.173,1.418l7.292,7.292a4.509,4.509,0,0,0,6.232,0l6.482-6.483a4.407,4.407,0,0,0,0-6.232l-7.293-7.29a7.269,7.269,0,0,1-1.418-8.173c.454-.981.874-1.993,1.246-3.008a7.232,7.232,0,0,1,6.763-4.731H273.1a4.412,4.412,0,0,0,4.408-4.408v-9.165a4.411,4.411,0,0,0-4.408-4.407H262.786a7.236,7.236,0,0,1-6.763-4.728c-.375-1.023-.793-2.034-1.246-3.01a7.27,7.27,0,0,1,1.418-8.173l7.293-7.293a4.408,4.408,0,0,0,0-6.232l-6.482-6.482a4.414,4.414,0,0,0-6.232,0l-7.292,7.293a7.268,7.268,0,0,1-8.174,1.418c-.972-.452-1.985-.871-3.008-1.247a7.232,7.232,0,0,1-4.729-6.762V328.3a4.411,4.411,0,0,0-4.406-4.407H214a4.411,4.411,0,0,0-4.406,4.407V338.61a7.233,7.233,0,0,1-4.728,6.762c-1.025.376-2.037.8-3.01,1.247a7.265,7.265,0,0,1-8.173-1.418l-7.293-7.293a4.414,4.414,0,0,0-6.232,0l-6.481,6.482a4.4,4.4,0,0,0,0,6.232l7.292,7.293a7.269,7.269,0,0,1,1.418,8.171c-.452.976-.871,1.988-1.247,3.011a7.23,7.23,0,0,1-6.762,4.728H164.063a4.411,4.411,0,0,0-4.408,4.407V387.4a4.412,4.412,0,0,0,4.408,4.408h10.312a7.232,7.232,0,0,1,6.763,4.729c.372,1.015.791,2.029,1.246,3.01a7.267,7.267,0,0,1-1.418,8.173l-7.292,7.29a4.4,4.4,0,0,0,0,6.232l6.481,6.483a4.511,4.511,0,0,0,6.232,0l7.293-7.292A7.209,7.209,0,0,1,198.783,418.337Zm19.8-3.061a32.46,32.46,0,1,1,32.458-32.46A32.5,32.5,0,0,1,218.581,415.275Zm0-62.123a29.664,29.664,0,1,0,29.662,29.664A29.7,29.7,0,0,0,218.581,353.152Z" transform="translate(-156.859 -321.095)" fill="#fff"/>
            </g>
          </g>
        </g>
        <g id="Group_27" data-name="Group 27" transform="translate(0 78.048)">
          <g id="Group_22" data-name="Group 22" transform="translate(368.07 157.872)" opacity="0.81">
            <path id="Path_16" data-name="Path 16" d="M422.018,301.718H403.793a1.4,1.4,0,0,1,0-2.8h18.225a1.4,1.4,0,1,1,0,2.8Z" transform="translate(-320.302 -261.856)" fill="#fff"/>
            <path id="Path_17" data-name="Path 17" d="M422.018,323.2H403.793a1.4,1.4,0,0,1,0-2.8h18.225a1.4,1.4,0,1,1,0,2.8Z" transform="translate(-320.302 -253.307)" fill="#fff"/>
            <g id="Group_21" data-name="Group 21">
              <g id="Group_20" data-name="Group 20">
                <g id="Group_19" data-name="Group 19">
                  <path id="Path_18" data-name="Path 18" d="M458.271,372.632H347.463a3.8,3.8,0,0,1-3.791-3.791V276.2a3.8,3.8,0,0,1,3.791-3.79H458.271a3.794,3.794,0,0,1,3.791,3.79v92.642A3.8,3.8,0,0,1,458.271,372.632ZM347.463,275.2a1,1,0,0,0-1,.994v92.642a1,1,0,0,0,1,1H458.271a1,1,0,0,0,1-1V276.2a1,1,0,0,0-1-.994Z" transform="translate(-343.672 -272.408)" fill="#fff"/>
                  <path id="Path_19" data-name="Path 19" d="M458.271,372.632H347.463a3.8,3.8,0,0,1-3.791-3.791V276.2a3.8,3.8,0,0,1,3.791-3.79H458.271a3.794,3.794,0,0,1,3.791,3.79v92.642A3.8,3.8,0,0,1,458.271,372.632ZM347.463,275.2a1,1,0,0,0-1,.994v92.642a1,1,0,0,0,1,1H458.271a1,1,0,0,0,1-1V276.2a1,1,0,0,0-1-.994Z" transform="translate(-343.672 -272.408)" fill="#fff" opacity="0.66"/>
                </g>
              </g>
              <path id="Path_20" data-name="Path 20" d="M441.554,291.292H354.707a1.4,1.4,0,1,1,0-2.8h86.846a1.4,1.4,0,1,1,0,2.8Z" transform="translate(-339.837 -266.005)" fill="#fff"/>
              <path id="Path_21" data-name="Path 21" d="M441.554,312.143H354.707a1.4,1.4,0,1,1,0-2.8h86.846a1.4,1.4,0,1,1,0,2.8Z" transform="translate(-339.837 -257.707)" fill="#fff"/>
              <path id="Path_22" data-name="Path 22" d="M401.529,301.718H354.707a1.4,1.4,0,1,1,0-2.8h46.822a1.4,1.4,0,0,1,0,2.8Z" transform="translate(-339.837 -261.856)" fill="#fff"/>
              <path id="Path_23" data-name="Path 23" d="M401.529,323.2H354.707a1.4,1.4,0,1,1,0-2.8h46.822a1.4,1.4,0,0,1,0,2.8Z" transform="translate(-339.837 -253.307)" fill="#fff"/>
              <path id="Path_24" data-name="Path 24" d="M386.283,333.152H354.707a1.4,1.4,0,1,1,0-2.8h31.576a1.4,1.4,0,1,1,0,2.8Z" transform="translate(-339.837 -249.346)" fill="#fff"/>
            </g>
          </g>
          <g id="Group_26" data-name="Group 26" opacity="0.81">
            <path id="Path_25" data-name="Path 25" d="M169.082,192.356H148.4a1.4,1.4,0,0,1,0-2.8h20.677a1.4,1.4,0,0,1,0,2.8Z" transform="translate(-53.87 -147.507)" fill="#fff"/>
            <path id="Path_26" data-name="Path 26" d="M169.082,216.729H148.4a1.4,1.4,0,1,1,0-2.8h20.677a1.4,1.4,0,1,1,0,2.8Z" transform="translate(-53.87 -137.808)" fill="#fff"/>
            <g id="Group_25" data-name="Group 25">
              <g id="Group_24" data-name="Group 24">
                <g id="Group_23" data-name="Group 23">
                  <path id="Path_27" data-name="Path 27" d="M210.536,272.809H84.174a3.794,3.794,0,0,1-3.79-3.79V163.269a3.794,3.794,0,0,1,3.79-3.79H210.536a3.794,3.794,0,0,1,3.79,3.79v105.75A3.794,3.794,0,0,1,210.536,272.809ZM84.174,162.275a1,1,0,0,0-.994.994v105.75a1,1,0,0,0,.994.994H210.536a1,1,0,0,0,.994-.994V163.269a1,1,0,0,0-.994-.994Z" transform="translate(-80.384 -159.479)" fill="#fff"/>
                  <path id="Path_28" data-name="Path 28" d="M210.536,272.809H84.174a3.794,3.794,0,0,1-3.79-3.79V163.269a3.794,3.794,0,0,1,3.79-3.79H210.536a3.794,3.794,0,0,1,3.79,3.79v105.75A3.794,3.794,0,0,1,210.536,272.809ZM84.174,162.275a1,1,0,0,0-.994.994v105.75a1,1,0,0,0,.994.994H210.536a1,1,0,0,0,.994-.994V163.269a1,1,0,0,0-.994-.994Z" transform="translate(-80.384 -159.479)" fill="#fff" opacity="0.66"/>
                </g>
              </g>
              <path id="Path_29" data-name="Path 29" d="M191.246,180.527H92.715a1.4,1.4,0,0,1,0-2.8h98.531a1.4,1.4,0,0,1,0,2.8Z" transform="translate(-76.033 -152.215)" fill="#fff"/>
              <path id="Path_30" data-name="Path 30" d="M191.246,204.184H92.715a1.4,1.4,0,0,1,0-2.8h98.531a1.4,1.4,0,0,1,0,2.8Z" transform="translate(-76.033 -142.8)" fill="#fff"/>
              <path id="Path_31" data-name="Path 31" d="M145.837,192.356H92.715a1.4,1.4,0,0,1,0-2.8h53.122a1.4,1.4,0,0,1,0,2.8Z" transform="translate(-76.033 -147.507)" fill="#fff"/>
              <path id="Path_32" data-name="Path 32" d="M145.837,216.729H92.715a1.4,1.4,0,0,1,0-2.8h53.122a1.4,1.4,0,1,1,0,2.8Z" transform="translate(-76.033 -137.808)" fill="#fff"/>
              <path id="Path_33" data-name="Path 33" d="M128.54,228.02H92.715a1.4,1.4,0,0,1,0-2.8H128.54a1.4,1.4,0,0,1,0,2.8Z" transform="translate(-76.033 -133.314)" fill="#fff"/>
            </g>
          </g>
        </g>
      </g>
      <g id="Group_34" data-name="Group 34" transform="translate(0 159.802)">
        <g id="Group_30" data-name="Group 30" transform="translate(326.032 0)">
          <g id="Group_29" data-name="Group 29">
            <path id="Path_34" data-name="Path 34" d="M472.71,158.019H409.875a6.738,6.738,0,0,0-6.234,5.114l-2.082,6.906a6.741,6.741,0,0,1-6.234,5.114H305.372c-3.646,0-6.6,3.41-6.6,7.615h0V284.614c0,4.207,2.954,7.616,6.6,7.616H472.71a7.348,7.348,0,0,0,7.047-7.616V165.635A7.348,7.348,0,0,0,472.71,158.019Z" transform="translate(-298.772 -158.019)" fill="#3e479b"/>
            <path id="Path_35" data-name="Path 35" d="M408.515,174.465l2.223-6.906a7.105,7.105,0,0,1,6.654-5.114H472.71a7.348,7.348,0,0,1,7.047,7.616v118.98a7.348,7.348,0,0,1-7.047,7.615H305.818a7.348,7.348,0,0,1-7.046-7.615V187.195a7.348,7.348,0,0,1,7.046-7.616h96.041A7.107,7.107,0,0,0,408.515,174.465Z" transform="translate(-298.772 -156.258)" fill="#6d6cd4"/>
            <path id="Path_36" data-name="Path 36" d="M409.647,179.29l2.094-6.51a6.7,6.7,0,0,1,6.274-4.82h52.14a6.926,6.926,0,0,1,6.642,7.179V287.283a6.926,6.926,0,0,1-6.642,7.179H312.848a6.926,6.926,0,0,1-6.64-7.179v-96a6.926,6.926,0,0,1,6.64-7.179h90.526A6.7,6.7,0,0,0,409.647,179.29Z" transform="translate(-295.813 -154.063)" fill="#fff" opacity="0.12"/>
          </g>
          <path id="Path_37" data-name="Path 37" d="M426.745,264.2H385.463a1.4,1.4,0,1,1,0-2.8h41.282a4.837,4.837,0,0,0,4.83-4.831V223.824a1.4,1.4,0,0,1,2.8,0v32.749A7.637,7.637,0,0,1,426.745,264.2Z" transform="translate(-264.828 -132.387)" fill="#fff"/>
        </g>
        <g id="Group_33" data-name="Group 33" transform="translate(0 115.831)">
          <g id="Group_32" data-name="Group 32">
            <g id="Group_31" data-name="Group 31">
              <path id="Path_38" data-name="Path 38" d="M72.647,240.875h63.242c2.827,0,5.344,2.308,6.273,5.753l2.1,7.769c.928,3.443,3.446,5.751,6.274,5.751h90.534c3.668,0,6.642,3.836,6.642,8.567h0V383.281c0,4.731-2.974,8.567-6.642,8.567H72.647c-3.917,0-7.092-3.836-7.092-8.567V249.442C65.555,244.71,68.73,240.875,72.647,240.875Z" transform="translate(-65.555 -240.875)" fill="#f28393"/>
              <path id="Path_39" data-name="Path 39" d="M137.257,259.375l-2.237-7.769c-.993-3.445-3.681-5.753-6.7-5.753H72.647c-3.917,0-7.092,3.836-7.092,8.567V388.26c0,4.731,3.175,8.567,7.092,8.567H240.615c3.917,0,7.092-3.836,7.092-8.567V273.695c0-4.732-3.175-8.567-7.092-8.567h-96.66C140.937,265.128,138.248,262.818,137.257,259.375Z" transform="translate(-65.555 -238.893)" fill="#fff" opacity="0.12"/>
              <path id="Path_40" data-name="Path 40" d="M133.139,264.8l-2.108-7.323c-.935-3.246-3.468-5.421-6.315-5.421H72.239c-3.691,0-6.684,3.615-6.684,8.075V386.284c0,4.46,2.993,8.075,6.684,8.075H230.561c3.692,0,6.684-3.615,6.684-8.075V278.3c0-4.46-2.992-8.076-6.684-8.076H139.452C136.607,270.222,134.073,268.047,133.139,264.8Z" transform="translate(-65.555 -236.425)" fill="#fff" opacity="0.12"/>
            </g>
          </g>
          <path id="Path_41" data-name="Path 41" d="M75.154,283.332a1.33,1.33,0,0,1-1.251-1.4v-19.4a4.543,4.543,0,0,1,4.265-4.767h26.064a1.407,1.407,0,0,1,0,2.8H78.168a1.877,1.877,0,0,0-1.763,1.971v19.4A1.33,1.33,0,0,1,75.154,283.332Z" transform="translate(-62.233 -234.154)" fill="#fff"/>
        </g>
      </g>
      <g id="Group_49" data-name="Group 49" transform="translate(85.776 0)">
        <g id="Group_42" data-name="Group 42" transform="translate(32.043)">
          <g id="Group_36" data-name="Group 36" transform="translate(0 39.775)">
            <g id="Group_35" data-name="Group 35">
              <rect id="Rectangle_2" data-name="Rectangle 2" width="287.688" height="108.037" rx="38.64" transform="translate(0 67.71)" fill="#c5d9ff"/>
              <circle id="Ellipse_9" data-name="Ellipse 9" cx="75.97" cy="75.97" r="75.97" transform="translate(67.874)" fill="#599af2"/>
            </g>
          </g>
          <g id="Group_37" data-name="Group 37">
            <rect id="Rectangle_3" data-name="Rectangle 3" width="287.688" height="108.037" rx="38.64" transform="translate(0 91.569)" fill="#599af2"/>
            <ellipse id="Ellipse_10" data-name="Ellipse 10" cx="75.97" cy="75.97" rx="75.97" ry="75.97" transform="translate(44.014 60.12) rotate(-23.309)" fill="#599af2"/>
          </g>
          <g id="Group_39" data-name="Group 39" opacity="0.35">
            <g id="Group_38" data-name="Group 38">
              <rect id="Rectangle_4" data-name="Rectangle 4" width="287.688" height="108.037" rx="38.64" transform="translate(0 91.569)" fill="#ecf1f7"/>
              <ellipse id="Ellipse_11" data-name="Ellipse 11" cx="75.97" cy="75.97" rx="75.97" ry="75.97" transform="translate(44.014 60.12) rotate(-23.309)" fill="#ecf1f7"/>
            </g>
          </g>
          <g id="Group_41" data-name="Group 41" transform="translate(101.63 85.108)">
            <g id="Group_40" data-name="Group 40" transform="translate(20.954)">
              <path id="Path_42" data-name="Path 42" d="M241.014,130.618a3.494,3.494,0,0,1-2.449-5.986l20.388-20.043,20.064,20.064a3.494,3.494,0,1,1-4.942,4.942l-15.164-15.162-15.446,15.183A3.482,3.482,0,0,1,241.014,130.618Z" transform="translate(-237.52 -104.589)" fill="#fff"/>
              <path id="Path_43" data-name="Path 43" d="M253.722,158.009a3.5,3.5,0,0,1-3.5-3.495V109.1a3.495,3.495,0,0,1,6.99,0v45.41A3.494,3.494,0,0,1,253.722,158.009Z" transform="translate(-232.462 -104.183)" fill="#fff"/>
            </g>
            <path id="Path_44" data-name="Path 44" d="M297.78,168.864H231.189a8.667,8.667,0,0,1-8.658-8.658V136.014a3.495,3.495,0,1,1,6.99,0v24.192a1.669,1.669,0,0,0,1.668,1.668H297.78a2.192,2.192,0,0,0,2.191-2.189V136.014a3.495,3.495,0,1,1,6.99,0v23.671A9.191,9.191,0,0,1,297.78,168.864Z" transform="translate(-222.531 -93.474)" fill="#fff"/>
          </g>
        </g>
        <g id="Group_44" data-name="Group 44" transform="translate(0 174.453)">
          <path id="Path_45" data-name="Path 45" d="M403.825,383.121,213.248,446.087a8.888,8.888,0,0,1-11.227-5.651L139.054,249.859a8.888,8.888,0,0,1,5.651-11.227l190.579-62.966a8.886,8.886,0,0,1,11.226,5.651l62.966,190.578A8.887,8.887,0,0,1,403.825,383.121Z" transform="translate(-122.259 -165.827)" fill="#4c65ba" opacity="0.36"/>
          <rect id="Rectangle_5" data-name="Rectangle 5" width="218.485" height="218.485" rx="6.357" transform="translate(0 68.542) rotate(-18.283)" fill="#fff"/>
          <g id="Group_43" data-name="Group 43" transform="translate(23.386 23.544)">
            <rect id="Rectangle_6" data-name="Rectangle 6" width="181.271" height="181.271" transform="translate(0 56.868) rotate(-18.283)" fill="#c5d9ff"/>
            <path id="Path_46" data-name="Path 46" d="M186.938,390.9l-12.875-38.968L192.9,306.537a13.032,13.032,0,0,1,15.97-7.485l34.86,10.827a4.654,4.654,0,0,0,5.386-2.052l29.023-48.3a24.117,24.117,0,0,1,30.1-9.7L340.2,263.574l.295.9,22.547,68.245-1.991.656Zm-8.4-38.8L189.6,385.6l168.139-55.554-20.936-63.365-30.231-13.007a19.906,19.906,0,0,0-24.846,8.008l-29.023,48.3a8.838,8.838,0,0,1-10.225,3.9l-34.859-10.827a8.853,8.853,0,0,0-10.854,5.086Z" transform="translate(-131.533 -160.451)" fill="#fff" opacity="0.47"/>
            <path id="Path_47" data-name="Path 47" d="M230.735,266.878a22.317,22.317,0,1,1,6.983-1.13A22.347,22.347,0,0,1,230.735,266.878Zm-.029-40.427a18.115,18.115,0,1,0,17.213,12.434A18,18,0,0,0,230.705,226.451Z" transform="translate(-117.864 -170.648)" fill="#fff" opacity="0.47"/>
          </g>
        </g>
        <g id="Group_46" data-name="Group 46" transform="translate(172.818 251.052)">
          <rect id="Rectangle_7" data-name="Rectangle 7" width="166.555" height="166.555" rx="6.357" transform="translate(8.453 8.453)" fill="#4c65ba" opacity="0.36"/>
          <rect id="Rectangle_8" data-name="Rectangle 8" width="166.555" height="166.555" rx="6.357" fill="#fff"/>
          <g id="Group_45" data-name="Group 45" transform="translate(12.183 14.184)">
            <rect id="Rectangle_9" data-name="Rectangle 9" width="138.186" height="138.186" transform="translate(1.906)" fill="#6081a8" opacity="0.79"/>
            <path id="Path_48" data-name="Path 48" d="M401.628,355.55H259.247V323.581l24.607-28.493a10.434,10.434,0,0,1,14.019-1.678l22.642,16.174a3.056,3.056,0,0,0,3.775-.17l32.56-28.022a18.882,18.882,0,0,1,24.762.182l20.016,17.747Zm-138.187-4.194H397.434v-50.15l-18.6-16.495a14.679,14.679,0,0,0-19.245-.143l-32.56,28.022a7.235,7.235,0,0,1-8.947.406l-22.643-16.173a6.26,6.26,0,0,0-8.407,1l-23.587,27.314Z" transform="translate(-259.247 -216.159)" fill="#fff" opacity="0.47"/>
            <path id="Path_49" data-name="Path 49" d="M321.109,284.06a17.5,17.5,0,1,1,17.5-17.5A17.523,17.523,0,0,1,321.109,284.06Zm0-30.814a13.31,13.31,0,1,0,13.31,13.31A13.325,13.325,0,0,0,321.109,253.246Z" transform="translate(-241.594 -227.224)" fill="#fff" opacity="0.47"/>
          </g>
        </g>
        <g id="Group_48" data-name="Group 48" transform="translate(95.518 333.263)">
          <rect id="Rectangle_10" data-name="Rectangle 10" width="107.591" height="107.591" rx="6.357" transform="translate(7.029 40.948) rotate(-20.54)" fill="#4c65ba" opacity="0.36"/>
          <rect id="Rectangle_11" data-name="Rectangle 11" width="107.591" height="107.591" rx="6.357" transform="translate(0 37.75) rotate(-20.54)" fill="#fff"/>
          <g id="Group_47" data-name="Group 47" transform="translate(11.737 11.817)">
            <rect id="Rectangle_12" data-name="Rectangle 12" width="89.266" height="89.265" transform="matrix(0.936, -0.351, 0.351, 0.936, 0, 31.32)" fill="#599af2"/>
            <path id="Path_50" data-name="Path 50" d="M227.263,395.61l-7.6-20.293,8.523-23.072a7.477,7.477,0,0,1,8.988-4.651l17.363,4.651a1.23,1.23,0,0,0,1.4-.6l13.344-24.332a12.954,12.954,0,0,1,15.94-5.838l16.44,6.319,13.121,35.022Zm-3.129-20.3,5.584,14.905,79.664-29.848-10.989-29.329-14.68-5.641a8.734,8.734,0,0,0-10.756,3.94l-13.345,24.332a5.415,5.415,0,0,1-6.162,2.634l-17.364-4.652a3.294,3.294,0,0,0-3.967,2.052Z" transform="translate(-197.257 -278.583)" fill="#fff" opacity="0.47"/>
            <path id="Path_51" data-name="Path 51" d="M247.038,332.873a12.05,12.05,0,1,1,11.27-16.278h0a12.05,12.05,0,0,1-11.27,16.278Zm-.022-19.907a7.857,7.857,0,1,0,7.364,5.1A7.833,7.833,0,0,0,247.015,312.966Z" transform="translate(-191.162 -283.301)" fill="#fff" opacity="0.47"/>
          </g>
        </g>
      </g>
    </g>
  </g>
</svg>
