<svg xmlns="http://www.w3.org/2000/svg" width="62.163" height="83.096" viewBox="0 0 62.163 83.096">
  <g id="Group_371" data-name="Group 371" transform="translate(-1430.595 -472.986)">
    <path id="Path_59" data-name="Path 59" d="M8.117,0H26.5c4.483,0,22.037,15.555,22.037,20.038l.162,44.9a8.117,8.117,0,0,1-8.117,8.117H8.117A8.117,8.117,0,0,1,0,64.938V8.117A8.117,8.117,0,0,1,8.117,0Z" transform="translate(1443.459 482.604)" fill="#e2ffe8"/>
    <g id="Icon_feather-file" data-name="Icon feather-file" transform="translate(1432.095 474.486)">
      <path id="Path_52" data-name="Path 52" d="M39.279,3H13.4C9.311,3,6,6.586,6,11.01V75.086c0,4.424,3.311,8.01,7.4,8.01H57.768c4.084,0,7.4-3.586,7.4-8.01V31.033Z" transform="translate(-6 -3)" fill="none" stroke="#63e234" stroke-linecap="round" stroke-linejoin="round" stroke-width="3"/>
      <path id="Path_53" data-name="Path 53" d="M19.5,3V31.033H47.533" transform="translate(11.629 -3)" fill="none" stroke="#63e234" stroke-linecap="round" stroke-linejoin="round" stroke-width="3"/>
    </g>
    <text id="EXL" transform="translate(1443.45 534.759)" fill="#63e234" font-size="16" font-family="LouisGeorgeCafe-Bold, Louis George Cafe" font-weight="700" letter-spacing="0.05em"><tspan x="0" y="0">EXL</tspan></text>
    <path id="Path_59-2" data-name="Path 59" d="M8.117,0H26.5c4.483,0,22.037,15.555,22.037,20.038l.162,44.9a8.117,8.117,0,0,1-8.117,8.117H8.117A8.117,8.117,0,0,1,0,64.938V8.117A8.117,8.117,0,0,1,8.117,0Z" transform="translate(1443.459 482.604)" fill="#e2ffe8"/>
    <g id="Icon_feather-file-2" data-name="Icon feather-file" transform="translate(1432.095 474.486)">
      <path id="Path_52-2" data-name="Path 52" d="M39.279,3H13.4C9.311,3,6,6.586,6,11.01V75.086c0,4.424,3.311,8.01,7.4,8.01H57.768c4.084,0,7.4-3.586,7.4-8.01V31.033Z" transform="translate(-6 -3)" fill="none" stroke="#63e234" stroke-linecap="round" stroke-linejoin="round" stroke-width="3"/>
      <path id="Path_53-2" data-name="Path 53" d="M19.5,3V31.033H47.533" transform="translate(11.629 -3)" fill="none" stroke="#63e234" stroke-linecap="round" stroke-linejoin="round" stroke-width="3"/>
    </g>
    <text id="EXL-2" data-name="EXL" transform="translate(1443.45 534.759)" fill="#63e234" font-size="16" font-family="LouisGeorgeCafe-Bold, Louis George Cafe" font-weight="700" letter-spacing="0.05em"><tspan x="0" y="0">EXL</tspan></text>
  </g>
</svg>
