<?xml version="1.0" encoding="UTF-8"?>
<svg xmlns="http://www.w3.org/2000/svg" width="451.411" height="248.023" viewBox="0 0 451.411 248.023">
  <g id="Lowercase_Color_1_" data-name="Lowercase_Color (1)" transform="translate(-36 -30.222)">
    <path id="Path_11380" data-name="Path 11380" d="M484.222,100.687c-1.713.093-3.109.236-4.505.235q-111.029-.067-222.057-.224c-11.373-.028-22.745-.925-34.114-1.471a20.614,20.614,0,0,1-4.626-.7,10.129,10.129,0,0,1-7.681-10.887c.417-4.483,2.389-9.675,8.515-10.14,9.209-.7,18.426-1.72,27.646-1.777,68.964-.429,139.031-1.3,208.379.392,7.094.173,14.167,1.186,21.249,1.818a4.976,4.976,0,0,1,.843.133c7.784,2.085,11.208,3.654,8.764,13C485.845,94.081,485.117,97.111,484.222,100.687Z" fill="#7eab50"/>
    <path id="Path_11381" data-name="Path 11381" d="M325.62,232.326c-1.422.069-2.814.2-4.207.2-55.384-.026-110.769.015-166.153-.166-10.66-.035-21.317-.933-31.974-1.459-2.674-.132-5.318-.7-6.155-3.645-1.014-3.57-1.731-7.322.618-10.674a5.465,5.465,0,0,1,3.165-1.9,66.489,66.489,0,0,1,10.526-1.6c56.042-2.191,112.187-2.129,168.26-1.5,7.821.088,15.638.781,23.451,1.286,4.064.262,4.951,1.152,5.27,5.167A29.64,29.64,0,0,1,325.62,232.326Z" fill="#80868c"/>
    <path id="Path_11382" data-name="Path 11382" d="M228.166,278.235c-20.2.045-40.4-.07-60.613-.208-6.393-.044-12.8-.514-19.169-1.1-8.254-.761-9.573-3.826-12.258-11.028-.433-1.162.31-3.069,1.05-4.31,3.051-5.114,8.073-6.949,13.657-7.478,4.53-.429,9.082-.729,13.63-.863,43.252-1.273,86.5-1.4,129.732.736,2.4.118,4.782.675,7.183.926,4.494.471,6.6,3.3,7.757,7.352a14.413,14.413,0,0,1-.258,9.194c-1.261,3.49-3.6,5.317-7.311,5.45-6.541.234-13.079.594-19.622.735C264.011,278.029,246.089,278.2,228.166,278.235Z" fill="#80868c"/>
    <path id="Path_11383" data-name="Path 11383" d="M290.9,145.384c-20.5,0-41,.071-61.5-.066a50.262,50.262,0,0,1-10.946-1.476c-4.307-1-7.406-5.978-7.281-10.877.133-5.2,3.535-9.945,8.111-10.691,21.792-3.553,44.053-1.223,65.986-.8,22.238.433,44.481.661,66.72,1.034a66.05,66.05,0,0,1,11.821,1.653A8.8,8.8,0,0,1,371.017,133c.083,4.552-2.263,8.254-6.868,8.976a198.093,198.093,0,0,1-22.867,2.36c-16.784.657-33.585.872-50.379,1.267Z" fill="#7eab50"/>
    <path id="Path_11384" data-name="Path 11384" d="M38.38,122.49c1.694-3.334,44.651,0,50.1,0H192.428v22.485a27.343,27.343,0,0,1-3.295.4q-64.28.026-128.56-.06c-5.518-.016-11.037-.93-16.549-1.5-3.662-.379-5.819-2.518-6.986-5.976A18.978,18.978,0,0,1,38.38,122.49Z" fill="#7eab50"/>
    <path id="Path_11385" data-name="Path 11385" d="M379.515,30.261c15.29-.144,30.569.116,45.974.713a55.729,55.729,0,0,1,10.491,1.683c5.767,1.357,9.676,8.845,9.3,12.527-1.648,16.287-27.727,13.139-38.975,13.654-19.431.89-38.761-.105-58.155-.818-4.826-.178-9.632-1.318-14.445-1.305-8.626.023-12.062-9.291-10.349-15.309,1.394-4.9,4.208-8.39,9.585-9.054,3.244-.4,6.5-.757,9.765-.933C355.032,30.75,367.277,30.376,379.515,30.261Z" fill="#7eab50"/>
    <path id="Path_11386" data-name="Path 11386" d="M113.19,101.618c-11.55-.231-23.12-.674-34.585-.692-4.375-.007-4.4-.034-5.305-4.257a72.914,72.914,0,0,1-1.758-9.184c-.418-5.119,1.709-8.04,6.631-9.494a37.517,37.517,0,0,1,7.92-1.682c14.24-.982,28.522-1.447,42.8-1.216,9.784.159,30.933-3.138,36.183,7.454,8.037,16.219-15.118,18.537-25.727,18.956C130.674,101.847,121.938,101.793,113.19,101.618Z" fill="#7eab50"/>
    <path id="Path_11387" data-name="Path 11387" d="M203.83,191.114a181.527,181.527,0,0,1-22.547-1.44c-6.331-.778-9.558-4.546-9.917-10.835-.428-7.5,2.664-12.635,8.846-14.144,11.461-2.8,23.12-2.831,34.78-1.863a57.991,57.991,0,0,1,11.69,2.162c8.692,2.59,11.952,12.05,6.942,19.629-2.2,3.332-5.691,4.732-9.42,5.195A166.05,166.05,0,0,1,203.83,191.114Z" fill="#7eab50"/>
  </g>
</svg>
