<?xml version="1.0" encoding="utf-8"?>
<!-- Generator: Adobe Illustrator 24.0.1, SVG Export Plug-In . SVG Version: 6.00 Build 0)  -->
<svg version="1.1" id="Layer_1" xmlns="http://www.w3.org/2000/svg" xmlns:xlink="http://www.w3.org/1999/xlink" x="0px" y="0px"
	 viewBox="0 0 1437.45984 308.46704" style="enable-background:new 0 0 1437.45984 308.46704;" xml:space="preserve">
<style type="text/css">
	.st0{fill:#7EAB50;}
	.st1{fill:#80868C;}
	.st2{fill:#629A50;}
	.st3{fill:#87B955;}
</style>
<path class="st0" d="M484.22238,100.68674c-1.71262,0.09317-3.1091,0.23632-4.50543,0.23547
	c-74.01913-0.04475-148.03842-0.03862-222.05725-0.22384c-11.37296-0.02847-22.74458-0.92538-34.11441-1.47075
	c-1.5519-0.07443-3.13608-0.27887-4.62561-0.70302c-5.03383-1.43333-8.16245-5.71199-7.68091-10.88654
	c0.41722-4.48327,2.38863-9.67523,8.51453-10.1397c9.20897-0.69821,18.42647-1.71978,27.64551-1.77747
	c68.96426-0.42892,139.03061-1.29663,208.37921,0.39227c7.09357,0.17275,14.16678,1.18558,21.24896,1.81828
	c0.28296,0.02527,0.56961,0.05929,0.84305,0.13254c7.78409,2.08543,11.20755,3.65383,8.76355,13.00236
	C485.8454,94.08106,485.11652,97.11129,484.22238,100.68674z"/>
<path class="st1" d="M325.62048,232.32556c-1.42166,0.06909-2.8143,0.19649-4.20691,0.19586
	c-55.38434-0.02553-110.76892,0.01503-166.15277-0.16605c-10.65973-0.03484-21.31717-0.93344-31.97438-1.45924
	c-2.67367-0.13191-5.31848-0.69992-6.15502-3.64481c-1.01418-3.57024-1.73147-7.32222,0.61829-10.67392
	c0.65413-0.93306,2.01079-1.6667,3.16508-1.90106c3.47626-0.70581,6.99832-1.4603,10.52588-1.59821
	c56.04175-2.19112,112.18713-2.12921,168.25972-1.49986c7.82104,0.08778,15.63779,0.78122,23.45062,1.28561
	c4.06406,0.26236,4.95135,1.15242,5.27011,5.1665C328.81152,222.94711,327.66412,227.58728,325.62048,232.32556z"/>
<path class="st1" d="M228.16632,278.23505c-20.19763,0.04501-40.39635-0.07016-60.61346-0.2081
	c-6.39319-0.04364-12.79836-0.5141-19.16925-1.10135c-8.25362-0.76077-9.57256-3.82559-12.25772-11.02774
	c-0.43335-1.16229,0.30963-3.06937,1.04958-4.30954c3.05125-5.11401,8.07288-6.94881,13.6573-7.47786
	c4.53049-0.42921,9.08173-0.72929,13.63036-0.86317c43.25208-1.27347,86.49979-1.39581,129.73232,0.73557
	c2.4035,0.11848,4.78226,0.67453,7.18307,0.92638c4.49374,0.47131,6.59937,3.30464,7.75717,7.35216
	c0.89795,3.13916,0.85245,6.12137-0.2576,9.19424c-1.26074,3.48999-3.60016,5.31717-7.31116,5.44983
	c-6.54117,0.23383-13.07916,0.59354-19.62207,0.73523C264.01141,278.02896,246.08929,278.19507,228.16632,278.23505z"/>
<path class="st0" d="M290.89771,145.38403c-20.50131,0-41.0031,0.07135-61.50349-0.06628
	c-3.65717-0.02457-7.37172-0.64381-10.94624-1.47612c-4.30678-1.00279-7.40648-5.97813-7.28093-10.87706
	c0.1333-5.20195,3.53488-9.9453,8.1111-10.69138c21.79204-3.55287,44.05267-1.22265,65.98596-0.79552
	c22.23782,0.43305,44.48096,0.66106,66.72006,1.03413c3.95132,0.06628,7.92389,0.86696,11.82074,1.65305
	c4.42764,0.89312,7.13251,4.42793,7.21255,8.8346c0.08267,4.55212-2.2626,8.25401-6.86816,8.97591
	c-7.56305,1.18552-15.22144,2.06055-22.86728,2.35985c-16.78378,0.65701-33.58487,0.87183-50.37888,1.2672
	C290.90134,145.5296,290.89954,145.45682,290.89771,145.38403z"/>
<path class="st0" d="M38.38024,122.49015c1.69437-3.33424,44.65077,0,50.09688,0c34.65025,0,69.30051,0,103.95077,0
	c0,7.52874,0,14.84007,0,22.48508c-1.14496,0.1442-2.21979,0.39748-3.29474,0.3979
	c-42.85336,0.01706-85.70689,0.06696-128.55989-0.06047c-5.51816-0.01642-11.0375-0.92975-16.5488-1.49994
	c-3.66248-0.37894-5.81939-2.51765-6.98616-5.97603C35.24813,132.53055,35.82205,127.52425,38.38024,122.49015z"/>
<path class="st0" d="M379.51489,30.26104c15.29016-0.14409,30.56909,0.11571,45.97394,0.71315
	c3.51648,0.13637,7.04865,0.87298,10.4913,1.68299c5.76724,1.35694,9.6759,8.8454,9.30331,12.52673
	c-1.64844,16.28717-27.72739,13.13851-38.97501,13.65374c-19.4306,0.89008-38.76132-0.10538-58.15521-0.81807
	c-4.82581-0.17818-9.63202-1.31818-14.4454-1.30545c-8.62604,0.0228-12.0621-9.29104-10.34857-15.30938
	c1.39383-4.89524,4.20807-8.38981,9.58542-9.05449c3.24423-0.40101,6.50211-0.75653,9.76465-0.93306
	C355.03189,30.75042,367.27698,30.37636,379.51489,30.26104z"/>
<path class="st0" d="M113.19042,101.61776c-11.55019-0.23128-23.11987-0.67382-34.58493-0.69241
	c-4.37452-0.00709-4.40228-0.03391-5.30529-4.25678c-0.65221-3.05002-1.50546-6.09503-1.75774-9.18403
	c-0.41805-5.11886,1.70895-8.03975,6.63107-9.49354c2.58409-0.76324,5.25137-1.49811,7.91997-1.68212
	c14.24042-0.98193,28.52164-1.44741,42.79565-1.21582c9.784,0.15874,30.93344-3.13848,36.18326,7.45443
	c8.03683,16.21905-15.11815,18.53653-25.72707,18.95631C130.67415,101.84691,121.93787,101.79292,113.19042,101.61776z"/>
<path class="st0" d="M203.82976,191.1136c-7.4006,0.00935-14.78445-0.48682-22.54668-1.44049
	c-6.3313-0.77786-9.5578-4.54601-9.91667-10.83495c-0.4279-7.49825,2.66385-12.63506,8.84584-14.14421
	c11.46092-2.79784,23.11958-2.83104,34.78049-1.86282c3.93411,0.32664,7.90948,1.03549,11.68951,2.1619
	c8.69247,2.59021,11.95235,12.05019,6.942,19.62936c-2.20302,3.33249-5.69104,4.73235-9.41977,5.19463
	C217.20544,190.68474,210.51077,191.10516,203.82976,191.1136z"/>
<path class="st2" d="M604.974,75.71901v54.43045c6.7005-6.96153,13.53149-12.29146,20.49298-15.98977
	c6.96155-3.69831,15.57642-5.54746,25.84473-5.54746c11.83459,0,22.21161,2.80637,31.13104,8.4191
	c8.91949,5.61273,15.83746,13.74901,20.75409,24.40886c4.91656,10.65984,7.37482,23.29936,7.37482,37.91856
	c0,10.79037-1.37054,20.6888-4.11163,29.69527c-2.74109,9.00648-6.72223,16.81645-11.94336,23.4299
	s-11.55176,11.72581-18.99194,15.33711c-7.44012,3.6113-15.64166,5.41693-24.60461,5.41693
	c-5.48224,0-10.63812-0.65263-15.46765-1.95792c-4.82959-1.3053-8.94122-3.02393-12.33496-5.15588
	c-3.39374-2.13197-6.28711-4.32921-8.68018-6.59171c-2.39301-2.2625-5.54742-5.65623-9.46332-10.18123v3.52428
	c0,6.70047-1.60986,11.76933-4.82953,15.20659c-3.21973,3.43726-7.30963,5.15587-12.26971,5.15587
	c-5.04712,0-9.07172-1.71861-12.07391-5.15587c-3.00214-3.43726-4.50323-8.50612-4.50323-15.20659V77.28535
	c0-7.22258,1.45758-12.68303,4.37274-16.38134c2.9151-3.69831,6.98328-5.54747,12.20441-5.54747
	c5.48218,0,9.70264,1.76214,12.66125,5.28641C603.49469,64.16722,604.974,69.19257,604.974,75.71901z M606.6709,181.57774
	c0,14.18411,3.24146,25.08325,9.72437,32.69742c6.48291,7.61418,14.98901,11.42126,25.51837,11.42126
	c8.96295,0,16.68591-3.8941,23.16882-11.68231s9.72437-18.94841,9.72437-33.48061c0-9.39806-1.34875-17.49083-4.04639-24.27832
	c-2.69757-6.78749-6.52643-12.0304-11.48651-15.72871c-4.96008-3.6983-10.74689-5.54745-17.36029-5.54745
	c-6.78754,0-12.83533,1.84915-18.14349,5.54745c-5.30817,3.69832-9.48511,9.04999-12.53076,16.05502
	C608.19373,163.58655,606.6709,171.91862,606.6709,181.57774z"/>
<path class="st2" d="M872.55774,180.79457c0,10.61633-1.65338,20.40598-4.96008,29.36894
	c-3.30676,8.96297-8.09277,16.66415-14.35815,23.10358c-6.26538,6.43941-13.74902,11.37775-22.45093,14.815
	s-18.49158,5.15587-29.36896,5.15587c-10.79034,0-20.49298-1.74037-29.10791-5.22115
	c-8.61487-3.48076-16.07672-8.4626-22.38562-14.94553s-11.09497-14.14059-14.35815-22.97304
	c-3.26324-8.83244-4.89484-18.60033-4.89484-29.30368c0-10.79037,1.65338-20.66704,4.96008-29.63
	c3.30676-8.96297,8.04926-16.62065,14.2276-22.97304c6.17841-6.3524,13.66205-11.24722,22.45093-14.68448
	c8.78894-3.43726,18.49158-5.15588,29.10791-5.15588c10.79041,0,20.58002,1.74039,29.36896,5.22115
	c8.78894,3.48077,16.3161,8.44086,22.58148,14.88026c6.26532,6.43942,11.02966,14.09709,14.29285,22.97305
	C870.92615,160.30157,872.55774,170.09122,872.55774,180.79457z M836.79291,180.79457c0-14.5322-3.198-25.84468-9.59387-33.93745
	c-6.39594-8.09277-14.98901-12.13916-25.77942-12.13916c-6.96155,0-13.09637,1.80565-18.40454,5.41693
	c-5.30817,3.6113-9.39807,8.94122-12.26971,15.98976c-2.87158,7.04855-4.30743,15.27185-4.30743,24.66992
	c0,9.31104,1.41406,17.44733,4.24219,24.40886c2.82813,6.96152,6.87451,12.29144,12.13916,15.98976
	c5.26465,3.6983,11.46478,5.54745,18.60034,5.54745c10.79041,0,19.38348-4.06813,25.77942-12.20442
	C833.59491,206.39993,836.79291,195.15273,836.79291,180.79457z"/>
<path class="st2" d="M932.99249,128.06099v4.30745c6.26538-8.26682,13.11816-14.3364,20.55829-18.20875
	c7.44012-3.87234,15.98975-5.80853,25.64886-5.80853c9.39807,0,17.79541,2.04495,25.19202,6.13485
	s12.92236,9.87667,16.57715,17.36031c2.34949,4.35095,3.87238,9.04999,4.56854,14.09709s1.04419,11.48653,1.04419,19.31824v66.30855
	c0,7.13557-1.63159,12.53076-4.89484,16.18556c-3.26318,3.6548-7.50537,5.48219-12.7265,5.48219
	c-5.30817,0-9.61566-1.87091-12.92236-5.61273s-4.96008-9.09349-4.96008-16.05502v-59.39053
	c0-11.74757-1.63159-20.7323-4.89484-26.95416c-3.26318-6.22186-9.76788-9.33279-19.51404-9.33279
	c-6.35236,0-12.13916,1.89267-17.36029,5.67799s-9.04999,8.98473-11.48651,15.59818
	c-1.74042,5.30817-2.6106,15.22835-2.6106,29.76053v44.64079c0,7.2226-1.67511,12.63953-5.02533,16.25082
	c-3.35028,3.6113-7.67944,5.41693-12.98761,5.41693c-5.13416,0-9.35455-1.87091-12.66132-5.61273
	c-3.3067-3.74182-4.96008-9.09349-4.96008-16.05502V128.58311c0-6.7875,1.47937-11.85635,4.43799-15.2066
	c2.95868-3.35023,7.00507-5.02535,12.13916-5.02535c3.13269,0,5.96082,0.73966,8.48438,2.21899
	c2.52356,1.47933,4.54675,3.69832,6.06958,6.65697S932.99249,123.79706,932.99249,128.06099z"/>
<path class="st2" d="M1176.82007,206.63924c0,9.83316-2.39307,18.25226-7.17908,25.25729
	c-4.78613,7.00504-11.85645,12.3132-21.21094,15.9245c-9.35461,3.6113-20.7323,5.41693-34.1333,5.41693
	c-12.79175,0-23.75623-1.95792-32.89319-5.87378s-15.88098-8.81068-20.23193-14.68448
	c-4.35095-5.87378-6.52649-11.76933-6.52649-17.68663c0-3.91586,1.39233-7.2661,4.177-10.0507
	c2.78455-2.78461,6.30884-4.17691,10.57275-4.17691c3.74182,0,6.61353,0.9137,8.61499,2.74109
	c2.00134,1.82741,3.91577,4.39447,5.74316,7.7012c3.65479,6.35239,8.02759,11.09492,13.11816,14.22762
	s12.0304,4.69904,20.81934,4.69904c7.1355,0,12.98755-1.5881,17.55603-4.7643c4.5686-3.17619,6.85278-6.80925,6.85278-10.89914
	c0-6.26538-2.37122-10.83388-7.11377-13.70551c-4.74255-2.87164-12.55249-5.61273-23.42993-8.22331
	c-12.26965-3.04567-22.25513-6.24362-29.9563-9.59386s-13.85779-7.76645-18.46985-13.24866
	c-4.61194-5.48219-6.91797-12.22618-6.91797-20.23193c0-7.13557,2.13196-13.87955,6.39587-20.23195
	c4.26392-6.35239,10.55115-11.42125,18.86145-15.20658s18.33923-5.678,30.08679-5.678c9.224,0,17.51257,0.95721,24.86572,2.87164
	s13.48792,4.48148,18.40454,7.70119c4.91663,3.21971,8.65845,6.78749,11.22546,10.70335
	c2.56702,3.91586,3.85059,7.74471,3.85059,11.48653c0,4.08989-1.37048,7.44012-4.11157,10.0507
	c-2.74121,2.61057-6.63525,3.91586-11.68237,3.91586c-3.65479,0-6.76575-1.04424-9.33276-3.13269
	c-2.56714-2.08846-5.50403-5.22115-8.81067-9.39807c-2.69763-3.48076-5.87378-6.26537-9.52869-8.35382
	c-3.65479-2.08847-8.61487-3.13269-14.88025-3.13269c-6.43933,0-11.79102,1.37054-16.05505,4.11165
	c-4.26392,2.7411-6.39587,6.1566-6.39587,10.24651c0,3.74182,1.56641,6.80923,4.6991,9.20227
	c3.13269,2.39302,7.35303,4.3727,12.66125,5.93904c5.30811,1.56635,12.6178,3.48077,21.92883,5.74327
	c11.05139,2.69759,20.07959,5.9173,27.08472,9.65912c7.005,3.74182,12.31311,8.15804,15.92444,13.24866
	S1176.82007,200.11281,1176.82007,206.63924z"/>
<path class="st3" d="M1297.03687,233.13655c-8.61487,6.70047-16.9469,11.72583-24.99622,15.07607
	c-8.04919,3.35023-17.07751,5.02534-27.08472,5.02534c-9.13696,0-17.16443-1.80563-24.08252-5.41693
	c-6.91797-3.6113-12.24792-8.50612-15.98975-14.68448c-3.74182-6.17834-5.61267-12.87881-5.61267-20.10141
	c0-9.74614,3.08911-18.05646,9.26746-24.93097s14.66272-11.48653,25.45313-13.83603
	c2.26245-0.52213,7.87524-1.69688,16.83813-3.52428c8.96301-1.82741,16.64246-3.50252,23.03833-5.02536
	c6.39587-1.52283,13.33569-3.37198,20.81934-5.54747c-0.43506-9.39806-2.32776-16.29433-5.67798-20.68878
	c-3.35022-4.39447-10.29004-6.59171-20.81934-6.59171c-9.04993,0-15.85925,1.26178-20.42773,3.78534
	c-4.56848,2.52354-8.48438,6.30888-11.74756,11.35599s-5.56921,8.3756-6.91809,9.98544
	c-1.34875,1.60985-4.24207,2.41478-8.68005,2.41478c-4.00293,0-7.46191-1.28352-10.37708-3.8506
	c-2.91516-2.56706-4.37268-5.85202-4.37268-9.8549c0-6.26538,2.21899-12.35672,6.65698-18.27402s11.35596-10.79036,20.75403-14.6192
	s21.10217-5.74326,35.11218-5.74326c15.66345,0,27.97668,1.84916,36.93958,5.54747
	c8.96301,3.69831,15.2937,9.55035,18.99194,17.5561c3.69836,8.00575,5.54749,18.62209,5.54749,31.849
	c0,8.35382-0.02173,15.44588-0.06531,21.27617c-0.04346,5.83028-0.10876,12.3132-0.1958,19.44876
	c0,6.70047,1.1095,13.68376,3.32849,20.94984c2.21899,7.2661,3.32849,11.94337,3.32849,14.03183
	c0,3.6548-1.71863,6.98329-5.15588,9.98544c-3.43726,3.00217-7.3313,4.50323-11.68225,4.50323
	c-3.65479,0-7.26611-1.71861-10.83386-5.15587C1304.82507,244.64484,1301.03979,239.66299,1297.03687,233.13655z
	 M1294.68738,181.57774c-5.22119,1.91441-12.8136,3.93761-22.77722,6.06958c-9.96375,2.13197-16.85999,3.6983-20.68884,4.69904
	c-3.82886,1.00072-7.48364,2.95865-10.96436,5.87378c-3.48083,2.91515-5.22119,6.98329-5.22119,12.20444
	c0,5.39519,2.04492,9.98544,6.13489,13.77077c4.08984,3.78534,9.44153,5.67799,16.05505,5.67799
	c7.04846,0,13.55322-1.54459,19.51404-4.63376c5.96082-3.08919,10.3335-7.07031,13.11804-11.94337
	c3.21973-5.39519,4.82959-14.27113,4.82959-26.62785V181.57774z"/>
<path class="st3" d="M1383.8385,91.77403c-4.96008,0-9.20227-1.52283-12.72656-4.5685s-5.2865-7.35311-5.2865-12.92233
	c0-5.04711,1.80566-9.20227,5.41699-12.46549s7.80994-4.89482,12.59607-4.89482c4.61194,0,8.7019,1.47932,12.26965,4.43797
	s5.35168,7.2661,5.35168,12.92234c0,5.4822-1.74036,9.76789-5.22119,12.85707
	C1392.75793,90.22944,1388.62451,91.77403,1383.8385,91.77403z M1401.45984,128.58311v102.98709
	c0,7.13557-1.6969,12.53076-5.09058,16.18556c-3.3938,3.6548-7.70129,5.48219-12.92236,5.48219
	c-5.22119,0-9.46338-1.87091-12.72656-5.61273s-4.8949-9.09349-4.8949-16.05502V129.62733
	c0-7.04855,1.63171-12.3567,4.8949-15.92449c3.26318-3.56778,7.50537-5.35168,12.72656-5.35168
	c5.22107,0,9.52856,1.7839,12.92236,5.35168C1399.76294,117.27063,1401.45984,122.23071,1401.45984,128.58311z"/>
</svg>
